<mxfile host="app.diagrams.net" modified="2022-02-07T02:58:40.256Z" agent="5.0 (Windows NT 10.0; Win64; x64) AppleWebKit/537.36 (KHTML, like Gecko) Chrome/98.0.4758.82 Safari/537.36" etag="x3QQIPFmIQjl1OehsWY2" version="16.5.3" type="github">
  <diagram id="4tYHTTuE27TbM3DsEGjK" name="Page-1">
    <mxGraphModel dx="2222" dy="762" grid="0" gridSize="10" guides="1" tooltips="1" connect="1" arrows="1" fold="1" page="0" pageScale="1" pageWidth="850" pageHeight="1100" math="0" shadow="0">
      <root>
        <mxCell id="0" />
        <mxCell id="1" parent="0" />
        <mxCell id="SrGeUaxLoBQll8gR-RI0-1" value="Processing the data" style="strokeWidth=2;html=1;shape=mxgraph.flowchart.terminator;whiteSpace=wrap;" parent="1" vertex="1">
          <mxGeometry x="125" y="70" width="210" height="70" as="geometry" />
        </mxCell>
        <mxCell id="SrGeUaxLoBQll8gR-RI0-2" value="&lt;code&gt;Get switch info for interlocking from athena table&lt;/code&gt;" style="strokeWidth=2;html=1;shape=mxgraph.flowchart.terminator;whiteSpace=wrap;" parent="1" vertex="1">
          <mxGeometry x="240" y="340" width="210" height="70" as="geometry" />
        </mxCell>
        <mxCell id="SrGeUaxLoBQll8gR-RI0-3" value="&lt;code&gt;Get switches with unscored movements from athena table&lt;/code&gt;" style="strokeWidth=2;html=1;shape=mxgraph.flowchart.terminator;whiteSpace=wrap;" parent="1" vertex="1">
          <mxGeometry x="20" y="340" width="210" height="70" as="geometry" />
        </mxCell>
        <mxCell id="SrGeUaxLoBQll8gR-RI0-4" value="&lt;code&gt;ri_feature_switch&lt;br&gt;_toggle_times&lt;/code&gt;" style="strokeWidth=2;html=1;shape=mxgraph.flowchart.database;whiteSpace=wrap;" parent="1" vertex="1">
          <mxGeometry x="170" y="490" width="120" height="100" as="geometry" />
        </mxCell>
        <mxCell id="SrGeUaxLoBQll8gR-RI0-6" value="" style="endArrow=classic;html=1;rounded=0;fontSize=12;entryX=0.5;entryY=1;entryDx=0;entryDy=0;entryPerimeter=0;" parent="1" target="SrGeUaxLoBQll8gR-RI0-2" edge="1">
          <mxGeometry width="50" height="50" relative="1" as="geometry">
            <mxPoint x="230" y="490" as="sourcePoint" />
            <mxPoint x="280" y="440" as="targetPoint" />
          </mxGeometry>
        </mxCell>
        <mxCell id="SrGeUaxLoBQll8gR-RI0-7" value="" style="endArrow=classic;html=1;rounded=0;fontSize=12;entryX=0.5;entryY=1;entryDx=0;entryDy=0;entryPerimeter=0;exitX=0.5;exitY=0;exitDx=0;exitDy=0;exitPerimeter=0;" parent="1" source="SrGeUaxLoBQll8gR-RI0-4" edge="1">
          <mxGeometry width="50" height="50" relative="1" as="geometry">
            <mxPoint x="20" y="490" as="sourcePoint" />
            <mxPoint x="135" y="410" as="targetPoint" />
          </mxGeometry>
        </mxCell>
        <mxCell id="SrGeUaxLoBQll8gR-RI0-8" value="" style="endArrow=classic;html=1;rounded=0;fontSize=12;entryX=0.5;entryY=1;entryDx=0;entryDy=0;entryPerimeter=0;" parent="1" target="SrGeUaxLoBQll8gR-RI0-1" edge="1">
          <mxGeometry width="50" height="50" relative="1" as="geometry">
            <mxPoint x="130" y="340" as="sourcePoint" />
            <mxPoint x="180" y="290" as="targetPoint" />
          </mxGeometry>
        </mxCell>
        <mxCell id="SrGeUaxLoBQll8gR-RI0-9" value="" style="endArrow=classic;html=1;rounded=0;fontSize=12;entryX=0.5;entryY=1;entryDx=0;entryDy=0;entryPerimeter=0;" parent="1" target="SrGeUaxLoBQll8gR-RI0-1" edge="1">
          <mxGeometry width="50" height="50" relative="1" as="geometry">
            <mxPoint x="335" y="340" as="sourcePoint" />
            <mxPoint x="385" y="290" as="targetPoint" />
          </mxGeometry>
        </mxCell>
        <mxCell id="SrGeUaxLoBQll8gR-RI0-10" value="&lt;b&gt;input.py&lt;/b&gt;" style="text;html=1;align=center;verticalAlign=middle;resizable=0;points=[];autosize=1;strokeColor=none;fillColor=none;fontSize=12;" parent="1" vertex="1">
          <mxGeometry x="195" y="14" width="57" height="18" as="geometry" />
        </mxCell>
        <mxCell id="AV2oiAc6VWrj1Y_JL4fa-1" value="&lt;code&gt;create_scores&lt;br&gt;&lt;/code&gt;&lt;code&gt;Compute scores using given parameters&lt;/code&gt;" style="strokeWidth=2;html=1;shape=mxgraph.flowchart.terminator;whiteSpace=wrap;" vertex="1" parent="1">
          <mxGeometry x="100" y="1020" width="210" height="70" as="geometry" />
        </mxCell>
        <mxCell id="AV2oiAc6VWrj1Y_JL4fa-2" value="&lt;code&gt;scores_per_interlocking&lt;br&gt;&lt;/code&gt;&lt;code&gt;Compute scores for given switches&lt;/code&gt;" style="strokeWidth=2;html=1;shape=mxgraph.flowchart.terminator;whiteSpace=wrap;" vertex="1" parent="1">
          <mxGeometry x="100" y="1220" width="210" height="70" as="geometry" />
        </mxCell>
        <mxCell id="AV2oiAc6VWrj1Y_JL4fa-3" value="&lt;code&gt;create_features&lt;br&gt;&lt;/code&gt;compute feature vales from params" style="strokeWidth=2;html=1;shape=mxgraph.flowchart.terminator;whiteSpace=wrap;" vertex="1" parent="1">
          <mxGeometry x="100" y="810" width="210" height="70" as="geometry" />
        </mxCell>
        <mxCell id="AV2oiAc6VWrj1Y_JL4fa-4" value="" style="endArrow=classic;html=1;rounded=0;fontSize=13;exitX=0.5;exitY=0;exitDx=0;exitDy=0;exitPerimeter=0;entryX=0.5;entryY=1;entryDx=0;entryDy=0;entryPerimeter=0;" edge="1" parent="1" source="AV2oiAc6VWrj1Y_JL4fa-2" target="AV2oiAc6VWrj1Y_JL4fa-1">
          <mxGeometry width="50" height="50" relative="1" as="geometry">
            <mxPoint x="200" y="1220" as="sourcePoint" />
            <mxPoint x="200" y="1090" as="targetPoint" />
          </mxGeometry>
        </mxCell>
        <mxCell id="AV2oiAc6VWrj1Y_JL4fa-5" value="" style="endArrow=classic;html=1;rounded=0;fontSize=13;entryX=0.5;entryY=1;entryDx=0;entryDy=0;entryPerimeter=0;exitX=0.5;exitY=0;exitDx=0;exitDy=0;exitPerimeter=0;" edge="1" parent="1" source="AV2oiAc6VWrj1Y_JL4fa-1" target="AV2oiAc6VWrj1Y_JL4fa-3">
          <mxGeometry width="50" height="50" relative="1" as="geometry">
            <mxPoint x="190" y="1020" as="sourcePoint" />
            <mxPoint x="240" y="970" as="targetPoint" />
          </mxGeometry>
        </mxCell>
        <mxCell id="AV2oiAc6VWrj1Y_JL4fa-6" value="&lt;code&gt;Write scores as parquet to S3&lt;/code&gt;" style="strokeWidth=2;html=1;shape=mxgraph.flowchart.terminator;whiteSpace=wrap;" vertex="1" parent="1">
          <mxGeometry x="110" y="1710" width="210" height="70" as="geometry" />
        </mxCell>
        <mxCell id="AV2oiAc6VWrj1Y_JL4fa-9" value="&lt;code style=&quot;line-height: 1.2&quot;&gt;&lt;font style=&quot;font-size: 12px&quot;&gt;ri_feature_switch&lt;br&gt;_toggle_scores&lt;/font&gt;&lt;/code&gt;" style="strokeWidth=2;html=1;shape=mxgraph.flowchart.database;whiteSpace=wrap;" vertex="1" parent="1">
          <mxGeometry x="520" y="1695" width="120" height="100" as="geometry" />
        </mxCell>
        <mxCell id="AV2oiAc6VWrj1Y_JL4fa-10" value="" style="endArrow=classic;html=1;rounded=0;fontSize=13;exitX=1;exitY=0.5;exitDx=0;exitDy=0;exitPerimeter=0;entryX=0;entryY=0.5;entryDx=0;entryDy=0;entryPerimeter=0;" edge="1" parent="1" source="AV2oiAc6VWrj1Y_JL4fa-6" target="AV2oiAc6VWrj1Y_JL4fa-9">
          <mxGeometry width="50" height="50" relative="1" as="geometry">
            <mxPoint x="400" y="1760" as="sourcePoint" />
            <mxPoint x="450" y="1710" as="targetPoint" />
          </mxGeometry>
        </mxCell>
        <mxCell id="AV2oiAc6VWrj1Y_JL4fa-11" value="input params" style="swimlane;fontSize=13;" vertex="1" parent="1">
          <mxGeometry x="50" y="2310" width="200" height="200" as="geometry" />
        </mxCell>
        <mxCell id="AV2oiAc6VWrj1Y_JL4fa-20" value="&lt;pre class=&quot;code highlight&quot; lang=&quot;python&quot;&gt;&lt;span id=&quot;LC11&quot; class=&quot;line&quot; lang=&quot;python&quot;&gt;    :param start_date:&lt;/span&gt;&lt;br&gt;&lt;span id=&quot;LC12&quot; class=&quot;line&quot; lang=&quot;python&quot;&gt;    :param end_date:&lt;/span&gt;&lt;br&gt;&lt;/pre&gt;" style="text;html=1;align=center;verticalAlign=middle;resizable=0;points=[];autosize=1;strokeColor=none;fillColor=none;fontSize=10;" vertex="1" parent="AV2oiAc6VWrj1Y_JL4fa-11">
          <mxGeometry x="-830" y="30" width="140" height="50" as="geometry" />
        </mxCell>
        <mxCell id="AV2oiAc6VWrj1Y_JL4fa-12" value="Model params" style="swimlane;fontSize=13;" vertex="1" parent="1">
          <mxGeometry x="325" y="2310" width="235" height="205" as="geometry" />
        </mxCell>
        <mxCell id="AV2oiAc6VWrj1Y_JL4fa-18" value="&lt;pre class=&quot;code highlight&quot; lang=&quot;python&quot; style=&quot;font-size: 10px&quot;&gt;&lt;span id=&quot;LC24&quot; class=&quot;line&quot; lang=&quot;python&quot;&gt;    :param switch_movements:&lt;/span&gt;&lt;br&gt;&lt;span id=&quot;LC25&quot; class=&quot;line&quot; lang=&quot;python&quot;&gt;    :param day_ranges: &lt;/span&gt;&lt;br&gt;&lt;span id=&quot;LC26&quot; class=&quot;line&quot; lang=&quot;python&quot;&gt;    :param day_scales: &lt;/span&gt;&lt;br&gt;&lt;span id=&quot;LC27&quot; class=&quot;line&quot; lang=&quot;python&quot;&gt;    :param std_mean_rolling_window_size: &lt;/span&gt;&lt;br&gt;&lt;span id=&quot;LC28&quot; class=&quot;line&quot; lang=&quot;python&quot;&gt;    :param weight_len: &lt;/span&gt;&lt;br&gt;&lt;span id=&quot;LC29&quot; class=&quot;line&quot; lang=&quot;python&quot;&gt;    :param half_life: &lt;/span&gt;&lt;br&gt;&lt;span id=&quot;LC30&quot; class=&quot;line&quot; lang=&quot;python&quot;&gt;    :param threshold: &lt;/span&gt;&lt;br&gt;&lt;span id=&quot;LC31&quot; class=&quot;line&quot; lang=&quot;python&quot;&gt;    :param amplitude: &lt;/span&gt;&lt;br&gt;&lt;span id=&quot;LC32&quot; class=&quot;line&quot; lang=&quot;python&quot;&gt;    :param operation: &lt;/span&gt;&lt;br&gt;&lt;div&gt;&lt;br&gt;&lt;/div&gt;&lt;/pre&gt;" style="text;html=1;align=left;verticalAlign=middle;resizable=0;points=[];autosize=1;strokeColor=none;fillColor=none;fontSize=13;" vertex="1" parent="AV2oiAc6VWrj1Y_JL4fa-12">
          <mxGeometry x="-5" y="15" width="240" height="190" as="geometry" />
        </mxCell>
        <mxCell id="AV2oiAc6VWrj1Y_JL4fa-13" value="Output params" style="swimlane;fontSize=13;" vertex="1" parent="1">
          <mxGeometry x="630" y="2310" width="200" height="205" as="geometry" />
        </mxCell>
        <mxCell id="AV2oiAc6VWrj1Y_JL4fa-19" value="&lt;pre class=&quot;code highlight&quot; lang=&quot;python&quot;&gt;&lt;div style=&quot;text-align: left&quot;&gt;&lt;span style=&quot;font-family: &amp;#34;helvetica&amp;#34; ; white-space: nowrap&quot;&gt;&amp;nbsp; &amp;nbsp; :param scores:&amp;nbsp;&lt;/span&gt;&lt;/div&gt;&lt;span id=&quot;LC14&quot; class=&quot;line&quot; lang=&quot;python&quot;&gt;&lt;div style=&quot;text-align: left&quot;&gt;&lt;span style=&quot;font-family: &amp;#34;helvetica&amp;#34; ; white-space: nowrap&quot;&gt;&amp;nbsp; &amp;nbsp; :param interlocking:&amp;nbsp;&lt;/span&gt;&lt;/div&gt;&lt;/span&gt;&lt;/pre&gt;" style="text;html=1;align=center;verticalAlign=middle;resizable=0;points=[];autosize=1;strokeColor=none;fillColor=none;fontSize=10;" vertex="1" parent="AV2oiAc6VWrj1Y_JL4fa-13">
          <mxGeometry x="-10" y="40" width="120" height="50" as="geometry" />
        </mxCell>
        <mxCell id="AV2oiAc6VWrj1Y_JL4fa-14" value="Algorive Object" style="swimlane;fontSize=13;" vertex="1" parent="1">
          <mxGeometry x="325" y="2150" width="200" height="40" as="geometry" />
        </mxCell>
        <mxCell id="AV2oiAc6VWrj1Y_JL4fa-15" value="" style="endArrow=classic;html=1;rounded=0;fontSize=13;" edge="1" parent="1">
          <mxGeometry width="50" height="50" relative="1" as="geometry">
            <mxPoint x="140" y="2310" as="sourcePoint" />
            <mxPoint x="430" y="2190" as="targetPoint" />
          </mxGeometry>
        </mxCell>
        <mxCell id="AV2oiAc6VWrj1Y_JL4fa-16" value="" style="endArrow=classic;html=1;rounded=0;fontSize=13;exitX=0.46;exitY=-0.015;exitDx=0;exitDy=0;exitPerimeter=0;" edge="1" parent="1" source="AV2oiAc6VWrj1Y_JL4fa-12">
          <mxGeometry width="50" height="50" relative="1" as="geometry">
            <mxPoint x="400" y="2290" as="sourcePoint" />
            <mxPoint x="433" y="2190" as="targetPoint" />
          </mxGeometry>
        </mxCell>
        <mxCell id="AV2oiAc6VWrj1Y_JL4fa-17" value="" style="endArrow=classic;html=1;rounded=0;fontSize=13;exitX=0.5;exitY=0;exitDx=0;exitDy=0;" edge="1" parent="1" source="AV2oiAc6VWrj1Y_JL4fa-13">
          <mxGeometry width="50" height="50" relative="1" as="geometry">
            <mxPoint x="700" y="2280" as="sourcePoint" />
            <mxPoint x="430" y="2190" as="targetPoint" />
          </mxGeometry>
        </mxCell>
        <mxCell id="AV2oiAc6VWrj1Y_JL4fa-21" value="&lt;pre class=&quot;code highlight&quot; lang=&quot;python&quot;&gt;&lt;span id=&quot;LC55&quot; class=&quot;line&quot; lang=&quot;python&quot;&gt;    :param switches:&lt;/span&gt;&lt;br&gt;&lt;span id=&quot;LC56&quot; class=&quot;line&quot; lang=&quot;python&quot;&gt;    :param start_date: &lt;/span&gt;&lt;br&gt;&lt;span id=&quot;LC57&quot; class=&quot;line&quot; lang=&quot;python&quot;&gt;    :param end_date: &lt;/span&gt;&lt;br&gt;&lt;span id=&quot;LC58&quot; class=&quot;line&quot; lang=&quot;python&quot;&gt;    :param interlocking:&lt;/span&gt;&lt;br&gt;&lt;/pre&gt;" style="text;html=1;align=left;verticalAlign=middle;resizable=0;points=[];autosize=1;strokeColor=none;fillColor=none;fontSize=10;" vertex="1" parent="1">
          <mxGeometry x="40" y="2340" width="150" height="70" as="geometry" />
        </mxCell>
        <mxCell id="AV2oiAc6VWrj1Y_JL4fa-22" value="&lt;b style=&quot;font-size: 12px;&quot;&gt;ouput.py&lt;/b&gt;" style="text;html=1;strokeColor=none;fillColor=none;align=center;verticalAlign=middle;whiteSpace=wrap;rounded=0;fontSize=12;" vertex="1" parent="1">
          <mxGeometry x="363" y="1614" width="77" height="38" as="geometry" />
        </mxCell>
        <mxCell id="AV2oiAc6VWrj1Y_JL4fa-23" value="&lt;b style=&quot;font-size: 12px&quot;&gt;model.py&lt;/b&gt;" style="text;html=1;strokeColor=none;fillColor=none;align=center;verticalAlign=middle;whiteSpace=wrap;rounded=0;fontSize=12;" vertex="1" parent="1">
          <mxGeometry x="159" y="750" width="77" height="38" as="geometry" />
        </mxCell>
      </root>
    </mxGraphModel>
  </diagram>
</mxfile>
